<?xml version="1.0" encoding="iso-8859-1"?>
<!-- Uploaded to: SVG Repo, www.svgrepo.com, Generator: SVG Repo Mixer Tools -->
<svg version="1.1" id="Layer_1" xmlns="http://www.w3.org/2000/svg" xmlns:xlink="http://www.w3.org/1999/xlink" 
	 viewBox="0 0 512.001 512.001" xml:space="preserve">
<path style="fill:#57545C;" d="M92.688,504.113H18.792c-5.719,0-10.357-4.636-10.357-10.357V62.852
	c0-5.719,4.636-10.357,10.357-10.357h63.982L92.688,504.113z"/>
<path style="fill:#77757E;" d="M134.815,504.113H60.919c-5.719,0-10.357-4.636-10.357-10.357V62.852
	c0-5.719,4.636-10.357,10.357-10.357h63.982L134.815,504.113z"/>
<path style="fill:#C6C3CB;" d="M166.413,52.495h-63.981c-5.719,0-10.357,4.636-10.357,10.357v430.906
	c0,5.719,4.636,10.357,10.357,10.357h325.323c5.719,0,10.357-4.636,10.357-10.357V391.431V323.09V62.852
	c0-5.719-4.636-10.357-10.357-10.357h-62.308H329.86h-43.735H166.413z"/>
<polygon style="fill:#FF7956;" points="438.112,145.43 176.651,145.43 122.833,145.43 8.437,145.43 8.437,52.495 438.112,52.495 "/>
<path style="opacity:0.26;fill:#77757E;enable-background:new    ;" d="M92.075,324.058c0,37.208,30.163,67.371,67.371,67.371
	h278.665V145.43H92.075V324.058z"/>
<g>
	<path style="fill:#C6C3CB;" d="M188.781,98.617h-9.145c-7.273,0-13.222-5.95-13.222-13.222V21.109
		c0-7.273,5.95-13.222,13.222-13.222h9.145c7.273,0,13.222,5.95,13.222,13.222v64.287C202.003,92.667,196.053,98.617,188.781,98.617
		z"/>
	<path style="fill:#C6C3CB;" d="M352.226,98.617h-9.145c-7.272,0-13.222-5.95-13.222-13.222V21.109
		c0-7.273,5.95-13.222,13.222-13.222h9.145c7.272,0,13.222,5.95,13.222,13.222v64.287C365.448,92.667,359.498,98.617,352.226,98.617
		z"/>
</g>
<rect x="8.435" y="52.495" style="fill:#FF5023;" width="83.641" height="92.937"/>
<path style="fill:#DFDFE2;" d="M158.09,391.43c37.208,0,67.371-30.163,67.371-67.371H358.36h42.063h101.785
	c0,37.208-30.163,67.371-67.371,67.371H157.511"/>
<path d="M511.452,324.058c0-4.356-3.531-7.887-7.887-7.887h-57.567V62.852c0-10.059-8.184-18.243-18.243-18.243h-54.419V21.109
	C373.335,9.469,363.866,0,352.226,0h-9.145c-11.64,0-21.109,9.469-21.109,21.109v23.499h-35.848c-4.356,0-7.887,3.531-7.887,7.887
	s3.531,7.887,7.887,7.887h35.848v25.014c0,11.639,9.469,21.108,21.109,21.108h9.145c11.64,0,21.109-9.469,21.109-21.108V60.381
	h54.42c1.362,0,2.47,1.108,2.47,2.47v74.692H176.652c-4.356,0-7.887,3.531-7.887,7.887s3.531,7.887,7.887,7.887h253.574v162.855
	h-28.445c-4.356,0-7.887,3.531-7.887,7.887c0,4.356,3.531,7.887,7.887,7.887h93.378c-3.869,29.086-28.837,51.598-58.964,51.598
	H205.476c15.808-12.26,26.629-30.659,28.818-51.598h125.422c4.356,0,7.887-3.531,7.887-7.887c0-4.356-3.531-7.887-7.887-7.887
	h-22.32c-1.803-15.306-10.705-28.47-23.325-36.086c14.174-8.553,23.674-24.102,23.674-41.829v-25.39
	c0-26.92-21.901-48.822-48.822-48.822c-26.921,0-48.822,21.902-48.822,48.822v25.39c0,17.727,9.5,33.275,23.674,41.829
	c-12.62,7.615-21.521,20.779-23.325,36.086h-13.634c-4.356,0-7.887,3.531-7.887,7.887c0,14.305-5.078,27.446-13.524,37.718V177.276
	c0-3.127-1.848-5.959-4.711-7.219c-2.861-1.258-6.199-0.708-8.505,1.405l-41.737,38.26c-3.211,2.943-3.428,7.932-0.485,11.143
	c2.943,3.211,7.932,3.427,11.143,0.485l28.522-26.145v180.079c-8.856,5.239-19.173,8.259-30.187,8.259
	c-32.799,0-59.484-26.684-59.484-59.484V153.317h22.871c4.356,0,7.887-3.531,7.887-7.887s-3.531-7.887-7.887-7.887H99.962V62.852
	c0-1.362,1.108-2.47,2.47-2.47h22.469h33.627v25.014c0,11.639,9.469,21.108,21.109,21.108h9.145c11.64,0,21.109-9.469,21.109-21.108
	V60.381h34.172c4.356,0,7.887-3.531,7.887-7.887s-3.531-7.887-7.887-7.887h-34.172V21.109C209.89,9.469,200.42,0,188.781,0h-9.145
	c-11.64,0-21.109,9.469-21.109,21.109v23.499H124.9h-22.468H82.774H60.919H18.792c-10.059,0-18.243,8.184-18.243,18.243v430.906
	c0,10.059,8.184,18.243,18.243,18.243h42.126h31.77h9.744h32.383h292.941c10.059,0,18.243-8.184,18.243-18.243v-95.1
	C482.877,393.834,511.452,362.232,511.452,324.058z M357.562,85.395c0,2.892-2.443,5.335-5.336,5.335h-9.145
	c-2.892,0-5.336-2.443-5.336-5.335v-32.89c0-0.003,0-0.006,0-0.011s0-0.006,0-0.011V21.109c0-2.892,2.444-5.336,5.336-5.336h9.145
	c2.892,0,5.336,2.444,5.336,5.336V85.395z M255.876,212.868c0-18.222,14.826-33.048,33.048-33.048s33.048,14.826,33.048,33.048
	v25.39c0,18.222-14.826,33.048-33.048,33.048s-33.048-14.826-33.048-33.048V212.868z M288.925,288.867
	c16.263,0,29.811,11.812,32.538,27.305h-65.077C259.114,300.679,272.661,288.867,288.925,288.867z M174.301,21.109
	c0-2.892,2.444-5.336,5.336-5.336h9.145c2.892,0,5.336,2.444,5.336,5.336v64.287c0,2.892-2.443,5.335-5.336,5.335h-9.145
	c-2.892,0-5.336-2.443-5.336-5.335V21.109z M82.774,60.381h1.603c-0.11,0.81-0.187,1.63-0.187,2.47v74.692H58.45V62.852
	c0-1.362,1.108-2.47,2.47-2.47H82.774z M18.792,60.381h24.071c-0.11,0.81-0.187,1.63-0.187,2.47v74.692H16.323V62.852
	C16.323,61.49,17.431,60.381,18.792,60.381z M16.323,493.757v-340.44h26.353v340.439c0,0.839,0.077,1.659,0.187,2.47H18.792
	C17.431,496.227,16.323,495.118,16.323,493.757z M58.45,493.757v-340.44h25.739v340.439c0,0.839,0.077,1.659,0.187,2.47H60.919
	C59.557,496.227,58.45,495.118,58.45,493.757z M427.756,496.227H134.815h-32.383c-1.362,0-2.47-1.108-2.47-2.47V370.08
	c13.556,17.481,34.62,28.844,58.318,29.208c0.195,0.015,0.388,0.029,0.587,0.029h271.358v94.44
	C430.226,495.118,429.117,496.227,427.756,496.227z"/>
</svg>